HIERARCHY
ROOT Hips
{
	OFFSET 2.709451 85.700180 6.243666
	CHANNELS 6 Xposition Yposition Zposition Zrotation Yrotation Xrotation 
	JOINT Spine
	{
		OFFSET -0.000000 8.814246 -2.080107
		CHANNELS 3 Zrotation Yrotation Xrotation
		JOINT Spine1
		{
			OFFSET -0.000000 8.844141 0.000000
			CHANNELS 3 Zrotation Yrotation Xrotation
			JOINT Spine2
			{
				OFFSET -0.000000 11.682268 -0.000000
				CHANNELS 3 Zrotation Yrotation Xrotation
				JOINT Spine3
				{
					OFFSET 0.000000 11.746700 -0.000000
					CHANNELS 3 Zrotation Yrotation Xrotation
					JOINT Neck
					{
						OFFSET -0.000000 17.658264 0.000000
						CHANNELS 3 Zrotation Yrotation Xrotation
						JOINT Neck1
						{
							OFFSET -0.000000 5.101515 0.000000
							CHANNELS 3 Zrotation Yrotation Xrotation
							JOINT Head
							{
								OFFSET -0.000000 5.101515 0.000000
								CHANNELS 3 Zrotation Yrotation Xrotation
								JOINT HeadEnd
								{
									OFFSET -0.000000 11.655085 0.000000
									CHANNELS 3 Zrotation Yrotation Xrotation
									End Site
									{
										OFFSET 0.000000 0.000000 0.000000
									}
								}
							}
						}
					}
					JOINT RightShoulder
					{
						OFFSET -2.625389 11.175210 -0.000000
						CHANNELS 3 Zrotation Yrotation Xrotation
						JOINT RightArm
						{
							OFFSET 0.000000 10.434715 0.000000
							CHANNELS 3 Zrotation Yrotation Xrotation
							JOINT RightForeArm
							{
								OFFSET -0.000000 29.628420 -0.000000
								CHANNELS 3 Zrotation Yrotation Xrotation
								JOINT RightHand
								{
									OFFSET -0.000000 22.857611 0.000000
									CHANNELS 3 Zrotation Yrotation Xrotation
									JOINT RightHandThumb1
									{
										OFFSET -2.867323 3.959563 2.944291
										CHANNELS 3 Zrotation Yrotation Xrotation
										JOINT RightHandThumb2
										{
											OFFSET 0.000000 3.350399 -0.000000
											CHANNELS 3 Zrotation Yrotation Xrotation
											JOINT RightHandThumb3
											{
												OFFSET -0.000000 3.756509 -0.000000
												CHANNELS 3 Zrotation Yrotation Xrotation
												JOINT RightHandThumb4
												{
													OFFSET 0.000000 3.147345 0.000000
													CHANNELS 3 Zrotation Yrotation Xrotation
													End Site
													{
														OFFSET 0.000000 0.000000 0.000000
													}
												}
											}
										}
									}
									JOINT RightHandIndex1
									{
										OFFSET -0.086752 10.030893 2.345280
										CHANNELS 3 Zrotation Yrotation Xrotation
										JOINT RightHandIndex2
										{
											OFFSET -0.000000 4.061090 0.000000
											CHANNELS 3 Zrotation Yrotation Xrotation
											JOINT RightHandIndex3
											{
												OFFSET -0.000000 3.248873 0.000000
												CHANNELS 3 Zrotation Yrotation Xrotation
												JOINT RightHandIndex4
												{
													OFFSET -0.000000 2.639709 0.000000
													CHANNELS 3 Zrotation Yrotation Xrotation
													End Site
													{
														OFFSET 0.000000 0.000000 0.000000
													}
												}
											}
										}
									}
									JOINT RightHandMiddle1
									{
										OFFSET 0.104102 9.502952 0.006768
										CHANNELS 3 Zrotation Yrotation Xrotation
										JOINT RightHandMiddle2
										{
											OFFSET -0.000000 4.568727 -0.000000
											CHANNELS 3 Zrotation Yrotation Xrotation
											JOINT RightHandMiddle3
											{
												OFFSET -0.000000 3.654981 0.000000
												CHANNELS 3 Zrotation Yrotation Xrotation
												JOINT RightHandMiddle4
												{
													OFFSET -0.000000 2.741236 0.000000
													CHANNELS 3 Zrotation Yrotation Xrotation
													End Site
													{
														OFFSET 0.000000 0.000000 0.000000
													}
												}
											}
										}
									}
									JOINT RightHandRing1
									{
										OFFSET 0.086752 8.921708 -2.267442
										CHANNELS 3 Zrotation Yrotation Xrotation
										JOINT RightHandRing2
										{
											OFFSET 0.000000 4.061090 -0.000000
											CHANNELS 3 Zrotation Yrotation Xrotation
											JOINT RightHandRing3
											{
												OFFSET 0.000000 3.654981 -0.000000
												CHANNELS 3 Zrotation Yrotation Xrotation
												JOINT RightHandRing4
												{
													OFFSET 0.000000 2.741236 -0.000000
													CHANNELS 3 Zrotation Yrotation Xrotation
													End Site
													{
														OFFSET 0.000000 0.000000 0.000000
													}
												}
											}
										}
									}
									JOINT RightHandPinky1
									{
										OFFSET -0.173504 7.976997 -4.467199
										CHANNELS 3 Zrotation Yrotation Xrotation
										JOINT RightHandPinky2
										{
											OFFSET -0.000000 3.350399 0.000000
											CHANNELS 3 Zrotation Yrotation Xrotation
											JOINT RightHandPinky3
											{
												OFFSET 0.000000 2.842763 -0.000000
												CHANNELS 3 Zrotation Yrotation Xrotation
												JOINT RightHandPinky4
												{
													OFFSET -0.000000 2.639709 0.000000
													CHANNELS 3 Zrotation Yrotation Xrotation
													End Site
													{
														OFFSET 0.000000 0.000000 0.000000
													}
												}
											}
										}
									}
									JOINT RightForeArmEnd
									{
										OFFSET 0.000000 0.000000 0.000000
										CHANNELS 3 Zrotation Yrotation Xrotation
										End Site
										{
											OFFSET 0.000000 0.000000 0.000000
										}
									}
								}
								JOINT RightArmEnd
								{
									OFFSET 0.000000 0.000000 0.000000
									CHANNELS 3 Zrotation Yrotation Xrotation
									End Site
									{
										OFFSET 0.000000 0.000000 0.000000
									}
								}
							}
						}
					}
					JOINT LeftShoulder
					{
						OFFSET 2.625389 11.175210 0.000000
						CHANNELS 3 Zrotation Yrotation Xrotation
						JOINT LeftArm
						{
							OFFSET -0.000000 10.813635 -0.000000
							CHANNELS 3 Zrotation Yrotation Xrotation
							JOINT LeftForeArm
							{
								OFFSET 0.000000 28.724781 -0.000000
								CHANNELS 3 Zrotation Yrotation Xrotation
								JOINT LeftHand
								{
									OFFSET 0.644384 25.716167 -0.328871
									CHANNELS 3 Zrotation Yrotation Xrotation
									JOINT LeftHandThumb1
									{
										OFFSET 2.867323 3.959563 2.944291
										CHANNELS 3 Zrotation Yrotation Xrotation
										JOINT LeftHandThumb2
										{
											OFFSET -0.000000 3.350399 -0.000000
											CHANNELS 3 Zrotation Yrotation Xrotation
											JOINT LeftHandThumb3
											{
												OFFSET -0.000000 3.756509 -0.000000
												CHANNELS 3 Zrotation Yrotation Xrotation
												JOINT LeftHandThumb4
												{
													OFFSET 0.000000 3.100000 0.000000
													CHANNELS 3 Zrotation Yrotation Xrotation
													End Site
													{
														OFFSET 0.000000 0.000000 0.000000
													}
												}
											}
										}
									}
									JOINT LeftHandIndex1
									{
										OFFSET 0.086752 10.030893 2.345280
										CHANNELS 3 Zrotation Yrotation Xrotation
										JOINT LeftHandIndex2
										{
											OFFSET 0.000000 4.061090 0.000000
											CHANNELS 3 Zrotation Yrotation Xrotation
											JOINT LeftHandIndex3
											{
												OFFSET -0.000000 3.248873 -0.000000
												CHANNELS 3 Zrotation Yrotation Xrotation
												JOINT LeftHandIndex4
												{
													OFFSET 0.000000 2.639709 -0.000000
													CHANNELS 3 Zrotation Yrotation Xrotation
													End Site
													{
														OFFSET 0.000000 0.000000 0.000000
													}
												}
											}
										}
									}
									JOINT LeftHandMiddle1
									{
										OFFSET -0.104102 9.502952 0.006768
										CHANNELS 3 Zrotation Yrotation Xrotation
										JOINT LeftHandMiddle2
										{
											OFFSET -0.000000 4.568727 0.000000
											CHANNELS 3 Zrotation Yrotation Xrotation
											JOINT LeftHandMiddle3
											{
												OFFSET 0.000000 3.654981 0.000000
												CHANNELS 3 Zrotation Yrotation Xrotation
												JOINT LeftHandMiddle4
												{
													OFFSET 0.000000 2.741236 0.000000
													CHANNELS 3 Zrotation Yrotation Xrotation
													End Site
													{
														OFFSET 0.000000 0.000000 0.000000
													}
												}
											}
										}
									}
									JOINT LeftHandRing1
									{
										OFFSET -0.086752 8.921708 -2.267442
										CHANNELS 3 Zrotation Yrotation Xrotation
										JOINT LeftHandRing2
										{
											OFFSET -0.000000 4.061090 -0.000000
											CHANNELS 3 Zrotation Yrotation Xrotation
											JOINT LeftHandRing3
											{
												OFFSET -0.000000 3.654981 0.000000
												CHANNELS 3 Zrotation Yrotation Xrotation
												JOINT LeftHandRing4
												{
													OFFSET -0.000000 2.741236 -0.000000
													CHANNELS 3 Zrotation Yrotation Xrotation
													End Site
													{
														OFFSET 0.000000 0.000000 0.000000
													}
												}
											}
										}
									}
									JOINT LeftHandPinky1
									{
										OFFSET 0.173504 7.976997 -4.467199
										CHANNELS 3 Zrotation Yrotation Xrotation
										JOINT LeftHandPinky2
										{
											OFFSET 0.000000 3.350399 0.000000
											CHANNELS 3 Zrotation Yrotation Xrotation
											JOINT LeftHandPinky3
											{
												OFFSET -0.000000 2.842763 -0.000000
												CHANNELS 3 Zrotation Yrotation Xrotation
												JOINT LeftHandPinky4
												{
													OFFSET -0.000000 2.639709 -0.000000
													CHANNELS 3 Zrotation Yrotation Xrotation
													End Site
													{
														OFFSET 0.000000 0.000000 0.000000
													}
												}
											}
										}
									}
									JOINT LeftForeArmEnd
									{
										OFFSET 0.000000 0.000000 0.000000
										CHANNELS 3 Zrotation Yrotation Xrotation
										End Site
										{
											OFFSET 0.000000 0.000000 0.000000
										}
									}
								}
								JOINT LeftArmEnd
								{
									OFFSET 0.000000 0.000000 0.000000
									CHANNELS 3 Zrotation Yrotation Xrotation
									End Site
									{
										OFFSET 0.000000 0.000000 0.000000
									}
								}
							}
						}
					}
				}
			}
		}
	}
	JOINT RightUpLeg
	{
		OFFSET -11.289943 -0.000000 -0.000000
		CHANNELS 3 Zrotation Yrotation Xrotation
		JOINT RightLeg
		{
			OFFSET 0.000000 -38.200325 -0.000000
			CHANNELS 3 Zrotation Yrotation Xrotation
			JOINT RightFoot
			{
				OFFSET 0.000000 -39.900856 0.000000
				CHANNELS 3 Zrotation Yrotation Xrotation
				JOINT RightToeBase
				{
					OFFSET 0.000000 -0.000000 15.261641
					CHANNELS 3 Zrotation Yrotation Xrotation
					JOINT RightToeBaseEnd
					{
						OFFSET -0.000000 -0.000000 7.370709
						CHANNELS 3 Zrotation Yrotation Xrotation
						End Site
						{
							OFFSET 0.000000 0.000000 0.000000
						}
					}
				}
				JOINT RightLegEnd
				{
					OFFSET 0.000000 0.000000 0.000000
					CHANNELS 3 Zrotation Yrotation Xrotation
					End Site
					{
						OFFSET 0.000000 0.000000 0.000000
					}
				}
			}
			JOINT RightUpLegEnd
			{
				OFFSET 0.000000 0.000000 0.000000
				CHANNELS 3 Zrotation Yrotation Xrotation
				End Site
				{
					OFFSET 0.000000 0.000000 0.000000
				}
			}
		}
	}
	JOINT LeftUpLeg
	{
		OFFSET 11.315661 0.000000 0.000000
		CHANNELS 3 Zrotation Yrotation Xrotation
		JOINT LeftLeg
		{
			OFFSET 0.000000 -38.200325 0.000000
			CHANNELS 3 Zrotation Yrotation Xrotation
			JOINT LeftFoot
			{
				OFFSET 0.000000 -39.900856 -0.000000
				CHANNELS 3 Zrotation Yrotation Xrotation
				JOINT LeftToeBase
				{
					OFFSET 0.000000 -0.000000 15.261641
					CHANNELS 3 Zrotation Yrotation Xrotation
					JOINT LeftToeBaseEnd
					{
						OFFSET 0.000000 -0.000000 7.539996
						CHANNELS 3 Zrotation Yrotation Xrotation
						End Site
						{
							OFFSET 0.000000 0.000000 0.000000
						}
					}
				}
				JOINT LeftLegEnd
				{
					OFFSET 0.000000 0.000000 0.000000
					CHANNELS 3 Zrotation Yrotation Xrotation
					End Site
					{
						OFFSET 0.000000 0.000000 0.000000
					}
				}
			}
			JOINT LeftUpLegEnd
			{
				OFFSET 0.000000 0.000000 0.000000
				CHANNELS 3 Zrotation Yrotation Xrotation
				End Site
				{
					OFFSET 0.000000 0.000000 0.000000
				}
			}
		}
	}
}
MOTION
Frames: 4
Frame Time: 0.016667
2.884652 85.631081 6.811819 6.015111 -1.518835 -19.246611 -4.378633 1.149758 8.095978 -0.153077 0.254137 3.227679 0.084731 -0.306327 12.721686 1.213341 -0.333785 5.521170 -8.572429 8.096617 6.237677 2.158368 5.394825 -3.835662 -0.958549 -0.391314 -21.703125 0.000000 0.000000 0.000000 95.009384 -1.376661 9.432226 62.787830 -18.385365 -0.227951 0.448646 18.618031 24.790403 12.581850 29.693235 1.857516 1.683737 -0.208568 44.342400 0.000006 0.000007 -4.094675 -0.000023 0.000039 -3.187584 -0.000008 0.000011 -0.000012 27.622084 16.837152 -8.875526 18.545204 0.076945 -4.986614 18.497593 1.033235 -4.618473 -0.000012 -0.000003 -0.000008 27.321840 6.975093 -8.945284 18.029835 -0.557350 -1.987099 18.123453 0.362403 -1.684845 -0.000004 0.000042 0.000034 29.917269 -9.055491 -6.890331 18.916746 1.341429 2.672839 18.829418 -0.486604 2.065077 0.000022 0.001280 -0.000007 31.037010 -25.635618 -6.337623 17.132977 2.135760 7.375688 16.810562 -1.554761 6.274245 -0.001096 0.000016 0.000008 0.000000 0.000000 0.000000 0.000000 0.000000 0.000000 -91.989868 0.413693 12.413695 -42.056675 13.518555 11.092231 -2.143236 -27.353806 62.101894 -25.389397 -6.941905 -2.742138 -1.984740 0.270110 44.170742 0.000023 0.000012 -4.638174 0.000119 -0.000022 -3.239401 -0.000543 -0.000005 -0.000309 -29.327003 17.014280 -7.401469 -18.863220 -0.165013 4.374931 -18.518253 0.810656 4.069630 0.000044 0.000093 -0.000009 -27.487846 7.018558 -8.366594 -18.970369 -0.667579 1.778419 -18.975285 0.256965 1.508455 0.000151 -0.000045 -0.000117 -30.356798 -9.184769 -7.708423 -22.087950 1.428049 -2.496598 -22.311123 -0.382994 -1.913560 0.001355 0.000001 -0.000016 -30.023832 -26.552824 -9.158164 -21.746441 2.568478 -7.166560 -21.510075 -1.148257 -5.931147 0.000242 0.000013 -0.000028 0.000000 0.000000 0.000000 0.000000 0.000000 0.000000 -21.340513 -5.369765 -2.249836 -0.474434 -1.083606 25.409527 8.388983 -18.299332 21.618862 -2.659113 -0.139598 -19.338125 0.000000 0.000000 0.000000 0.000000 0.000000 0.000000 0.000000 0.000000 0.000000 -5.771394 16.644474 20.248447 0.140155 0.635092 11.309281 5.939027 17.757336 10.180071 -0.418175 -0.947222 -16.242867 0.000000 0.000000 0.000000 0.000000 0.000000 0.000000 0.000000 0.000000 0.000000 
2.851264 85.624138 6.854870 5.998441 -1.535417 -19.250326 -4.373772 1.150824 8.123204 -0.143819 0.254960 3.209843 0.136852 -0.297410 12.810259 1.217548 -0.315534 5.489898 -8.620717 8.128249 6.071554 2.127755 5.336035 -3.925338 -0.952847 -0.374082 -21.599249 0.000000 0.000000 0.000000 95.018120 -1.349648 9.450702 62.806313 -18.643911 -0.218313 0.442550 18.375994 24.581011 12.494528 29.570971 1.988873 1.657797 -0.205734 44.352924 0.000006 0.000007 -4.016586 -0.000023 0.000039 -3.136956 -0.000007 0.000010 -0.000013 27.473385 16.834911 -8.835981 18.506533 0.070177 -4.974423 18.461332 1.026826 -4.609952 -0.000012 -0.000004 -0.000008 27.172815 6.979194 -8.926212 17.995123 -0.559591 -1.981681 18.087635 0.360173 -1.680920 -0.000003 0.000048 0.000033 29.775839 -9.064031 -6.885300 18.880306 1.345170 2.668975 18.794691 -0.483596 2.061470 0.000022 0.001247 -0.000007 30.878635 -25.664949 -6.318389 17.112764 2.148449 7.363637 16.782204 -1.543157 6.261741 -0.001080 0.000015 0.000009 0.000000 0.000000 0.000000 0.000000 0.000000 0.000000 -92.012955 0.449695 12.376349 -42.228817 13.771719 10.771035 -2.139743 -27.278154 61.842884 -24.912676 -6.677395 -3.070896 -1.965111 0.272833 44.171856 0.000022 0.000012 -4.606102 0.000121 -0.000021 -3.211576 -0.000558 -0.000006 -0.000294 -29.238846 16.956680 -7.438683 -18.727043 -0.171371 4.358805 -18.381182 0.803394 4.054658 0.000044 0.000127 -0.000009 -27.372858 6.998661 -8.411155 -18.822948 -0.670408 1.771313 -18.839258 0.254893 1.502783 0.000091 -0.000046 -0.000118 -30.151896 -9.167000 -7.726883 -21.915710 1.433189 -2.482688 -22.152355 -0.379212 -1.904122 0.001420 0.000000 -0.000015 -29.803020 -26.518728 -9.139119 -21.585640 2.583362 -7.123727 -21.357418 -1.136411 -5.901386 0.000219 0.000013 -0.000028 0.000000 0.000000 0.000000 0.000000 0.000000 0.000000 -21.316967 -5.300736 -2.230791 -0.475059 -1.078473 25.505917 8.409307 -18.226582 21.533066 -2.653204 -0.136909 -19.362150 0.000000 0.000000 0.000000 0.000000 0.000000 0.000000 0.000000 0.000000 0.000000 -5.754810 16.611725 20.256048 0.139178 0.631265 11.366501 5.938455 17.786840 10.153263 -0.424489 -0.948671 -16.223513 0.000000 0.000000 0.000000 0.000000 0.000000 0.000000 0.000000 0.000000 0.000000 
2.817832 85.616615 6.899573 5.986432 -1.520171 -19.259771 -4.372599 1.152563 8.152687 -0.134971 0.256197 3.188155 0.182066 -0.275975 12.900786 1.216982 -0.292910 5.464390 -8.645589 8.140356 5.917562 2.099151 5.270061 -4.007725 -0.942001 -0.355429 -21.500072 0.000000 0.000000 0.000000 95.034355 -1.327263 9.464827 62.813251 -18.855028 -0.183103 0.439548 18.131224 24.384031 12.409020 29.499506 2.130239 1.636300 -0.203596 44.361698 0.000006 0.000008 -3.948079 -0.000023 0.000040 -3.093076 -0.000007 0.000010 -0.000013 27.344936 16.831608 -8.795030 18.475473 0.062302 -4.959525 18.432133 1.019479 -4.598811 -0.000012 -0.000004 -0.000008 27.039932 6.982348 -8.905376 17.965467 -0.562272 -1.975144 18.056858 0.357557 -1.676002 -0.000003 0.000054 0.000033 29.647018 -9.070436 -6.883748 18.843655 1.349789 2.662845 18.759853 -0.479988 2.056116 0.000022 0.001235 -0.000006 30.735003 -25.688324 -6.308855 17.088575 2.164007 7.344053 16.750589 -1.529210 6.242908 -0.001058 0.000015 0.000009 0.000000 0.000000 0.000000 0.000000 0.000000 0.000000 -92.052345 0.488219 12.334652 -42.401207 14.073050 10.447130 -2.134090 -27.169712 61.538063 -24.405203 -6.396974 -3.397493 -1.941256 0.275234 44.174469 0.000022 0.000012 -4.561208 0.000121 -0.000020 -3.176732 -0.000570 -0.000006 -0.000288 -29.129349 16.900282 -7.475846 -18.575121 -0.178505 4.340735 -18.229059 0.795393 4.038080 0.000043 0.000155 -0.000009 -27.235088 6.979009 -8.459949 -18.657310 -0.673524 1.763367 -18.684841 0.252587 1.496513 0.000052 -0.000046 -0.000119 -29.914820 -9.148826 -7.758646 -21.717140 1.438962 -2.467830 -21.967617 -0.375042 -1.893864 0.001477 -0.000000 -0.000015 -29.537216 -26.484272 -9.140189 -21.396238 2.600027 -7.077327 -21.176500 -1.123386 -5.868772 0.000194 0.000012 -0.000028 0.000000 0.000000 0.000000 0.000000 0.000000 0.000000 -21.303396 -5.239793 -2.191403 -0.475837 -1.074223 25.599520 8.435265 -18.165415 21.441870 -2.648552 -0.132785 -19.385727 0.000000 0.000000 0.000000 0.000000 0.000000 0.000000 0.000000 0.000000 0.000000 -5.742640 16.567450 20.268942 0.137970 0.627929 11.428788 5.936879 17.806416 10.124042 -0.430430 -0.950528 -16.201685 0.000000 0.000000 0.000000 0.000000 0.000000 0.000000 0.000000 0.000000 0.000000 
2.784311 85.608887 6.946497 5.978899 -1.475577 -19.274050 -4.373331 1.154718 8.183960 -0.126418 0.257364 3.160758 0.219995 -0.242438 12.992737 1.211180 -0.266640 5.443177 -8.652179 8.136941 5.775306 2.072113 5.199069 -4.082906 -0.927218 -0.335606 -21.406460 0.000000 0.000000 0.000000 95.058075 -1.308666 9.474965 62.806927 -19.023830 -0.122786 0.438580 17.886175 24.206034 12.334642 29.471411 2.278497 1.618260 -0.201998 44.369053 0.000006 0.000008 -3.887060 -0.000023 0.000040 -3.054486 -0.000006 0.000010 -0.000014 27.235092 16.828066 -8.757174 18.453201 0.053289 -4.941997 18.411066 1.011140 -4.585117 -0.000012 -0.000004 -0.000008 26.922363 6.984846 -8.886949 17.941824 -0.565419 -1.967525 18.032290 0.354552 -1.670136 -0.000003 0.000059 0.000033 29.527723 -9.075108 -6.889302 18.807837 1.355257 2.654517 18.725977 -0.475791 2.049065 0.000021 0.001241 -0.000005 30.602596 -25.706465 -6.311708 17.061131 2.182348 7.317065 16.716930 -1.512928 6.217865 -0.001030 0.000015 0.000010 0.000000 0.000000 0.000000 0.000000 0.000000 0.000000 -92.107079 0.530157 12.289841 -42.570583 14.424963 10.119493 -2.127173 -27.025362 61.173000 -23.867800 -6.113424 -3.729975 -1.910632 0.276985 44.179592 0.000022 0.000013 -4.497581 0.000119 -0.000019 -3.130624 -0.000579 -0.000007 -0.000288 -28.985033 16.847422 -7.510592 -18.403097 -0.186585 4.320204 -18.057486 0.786507 4.019375 0.000043 0.000178 -0.000008 -27.061764 6.960404 -8.510364 -18.469065 -0.677001 1.754378 -18.507778 0.250000 1.489447 0.000032 -0.000047 -0.000120 -29.633492 -9.131023 -7.800907 -21.487635 1.445498 -2.451721 -21.751848 -0.370424 -1.882591 0.001519 -0.000000 -0.000015 -29.216461 -26.450232 -9.160119 -21.174614 2.618690 -7.026618 -20.962915 -1.108976 -5.832681 0.000165 0.000012 -0.000028 0.000000 0.000000 0.000000 0.000000 0.000000 0.000000 -21.298164 -5.185466 -2.132777 -0.476671 -1.070649 25.687653 8.465086 -18.115208 21.346910 -2.645151 -0.127382 -19.407290 0.000000 0.000000 0.000000 0.000000 0.000000 0.000000 0.000000 0.000000 0.000000 -5.734397 16.511368 20.284391 0.136644 0.625142 11.497251 5.935295 17.815641 10.093908 -0.436277 -0.952351 -16.178423 0.000000 0.000000 0.000000 0.000000 0.000000 0.000000 0.000000 0.000000 0.000000 
